<?xml version="1.0" standalone="no"?>
<!DOCTYPE svg PUBLIC "-//W3C//DTD SVG 20010904//EN"
 "http://www.w3.org/TR/2001/REC-SVG-20010904/DTD/svg10.dtd">
<svg version="1.0" xmlns="http://www.w3.org/2000/svg"
 width="260.000000pt" height="260.000000pt" viewBox="0 0 260.000000 260.000000"
 preserveAspectRatio="xMidYMid meet">
<metadata>
Created by potrace 1.11, written by Peter Selinger 2001-2013
</metadata>
<g transform="translate(0.000000,260.000000) scale(0.100000,-0.100000)"
fill="#000000" stroke="none">
<path d="M564 1573 l1 -1008 40 5 c105 13 391 4 525 -16 25 -4 104 -7 175 -7
119 0 138 3 223 32 52 17 115 43 140 58 81 46 246 179 197 158 -78 -33 -258
-87 -350 -105 -103 -20 -302 -29 -360 -16 -11 3 -26 5 -32 5 -10 1 -13 198
-13 951 l0 950 -273 0 -274 0 1 -1007z"/>
<path d="M1199 2579 c-1 -2 -3 -109 -4 -236 l-2 -233 111 -1 c143 -1 190 -5
273 -24 255 -58 400 -251 439 -585 10 -85 10 -295 1 -390 -44 -433 -257 -633
-672 -633 -111 0 -161 4 -375 28 -180 20 -321 22 -392 6 -165 -38 -354 -144
-500 -281 l-63 -60 60 29 c104 50 191 72 310 78 106 5 227 -9 320 -37 65 -20
217 -70 355 -118 217 -75 305 -94 450 -98 178 -5 304 23 465 104 151 75 253
159 348 287 123 165 178 310 243 630 10 52 12 387 3 455 -18 131 -21 146 -35
209 -54 232 -155 429 -292 569 -163 166 -368 254 -667 287 -69 7 -375 19 -376
14z"/>
</g>
</svg>
